<?xml version="1.0" encoding="utf-8"?>
<svg version="1.1" xmlns:xlink="http://www.w3.org/1999/xlink" width="23px" height="32px" xmlns="http://www.w3.org/2000/svg">
  <g transform="matrix(1 0 0 1 -47 -134 )">
    <path d="M 20.5432252701579 7.64423076923077  C 20.9319756165143 8.26602564102564  21.1645885286783 9  21.24106400665 9.84615384615385  C 21.4704904405653 12.1794871794872  20.6356331393738 13.8333333333333  18.7364921030756 14.8076923076923  C 20.2277639235245 15.1666666666667  21.3430313106124 15.8269230769231  22.0822942643392 16.7884615384615  C 22.8215572180659 17.75  23.10834026046 19.1217948717949  22.9426433915212 20.9038461538462  C 22.8534220005542 21.8141025641026  22.6463009143807 22.6153846153846  22.3212801330008 23.3076923076923  C 21.9962593516209 24  21.5852036575229 24.5705128205128  21.0881130507066 25.0192307692308  C 20.5910224438903 25.4679487179487  19.9728456636187 25.8429487179487  19.2335827098919 26.1442307692308  C 18.4943197561651 26.4455128205128  17.7200055417013 26.6666666666667  16.9106400665004 26.8076923076923  C 16.1012745912995 26.9487179487179  15.1740094208922 27.0448717948718  14.1288445552785 27.0961538461538  L 14.1288445552785 32  L 11.1845386533666 32  L 11.1845386533666 27.1730769230769  C 10.1648656137434 27.1730769230769  9.38736492103076 27.1666666666667  8.8520365752286 27.1538461538462  L 8.8520365752286 32  L 5.90773067331671 32  L 5.90773067331671 27.0961538461538  C 5.6783042394015 27.0961538461538  5.33416458852868 27.0929487179487  4.87531172069825 27.0865384615385  C 4.41645885286783 27.0801282051282  4.06594624549737 27.0769230769231  3.82377389858687 27.0769230769231  L 0 27.0769230769231  L 0.592684954280964 23.5576923076923  L 2.71487946799668 23.5576923076923  C 3.35217511776115 23.5576923076923  3.72180659462455 23.2307692307692  3.82377389858687 22.5769230769231  L 3.82377389858687 14.8461538461538  L 4.12967581047382 14.8461538461538  C 4.05320033250208 14.8333333333333  3.95123302853976 14.8269230769231  3.82377389858687 14.8269230769231  L 3.82377389858687 9.30769230769231  C 3.6580770296481 8.43589743589743  3.09088390135772 8  2.12219451371571 8  L 0 8  L 0 4.84615384615385  L 4.05320033250208 4.86538461538462  C 4.86893876420061 4.86538461538462  5.48711554447215 4.85897435897436  5.90773067331671 4.84615384615385  L 5.90773067331671 0  L 8.8520365752286 0  L 8.8520365752286 4.75  C 9.89720144084234 4.72435897435897  10.674702133555 4.71153846153846  11.1845386533666 4.71153846153846  L 11.1845386533666 0  L 14.1288445552785 0  L 14.1288445552785 4.84615384615385  C 15.1357716819063 4.93589743589743  16.0279855915766 5.0801282051282  16.8054862842893 5.27884615384615  C 17.5829869770019 5.4775641025641  18.3031310612358 5.76602564102564  18.9659185369909 6.14423076923077  C 19.6287060127459 6.52243589743589  20.1544749238016 7.02243589743589  20.5432252701579 7.64423076923077  Z M 16.9488778054863 21.3076923076923  C 17.0699639789415 21.0128205128205  17.1305070656692 20.6858974358974  17.1305070656692 20.3269230769231  C 17.1305070656692 19.8653846153846  17.0349127182045 19.4551282051282  16.8437240232751 19.0961538461538  C 16.6525353283458 18.7371794871795  16.4167359379329 18.4423076923077  16.1363258520366 18.2115384615385  C 15.8559157661402 17.9807692307692  15.4894707675256 17.7852564102564  15.0369908561929 17.625  C 14.5845109448601 17.4647435897436  14.1670822942643 17.3461538461538  13.7847049044057 17.2692307692308  C 13.402327514547 17.1923076923077  12.9307287337213 17.1346153846154  12.3699085619285 17.0961538461538  C 11.8090883901358 17.0576923076923  11.3693543917983 17.0384615384615  11.050706566916 17.0384615384615  C 10.7320587420338 17.0384615384615  10.3210030479357 17.0448717948718  9.81753948462178 17.0576923076923  C 9.31407592130784 17.0705128205128  9.01136048766972 17.0769230769231  8.9093931837074 17.0769230769231  L 8.9093931837074 23.5769230769231  C 9.01136048766972 23.5769230769231  9.24715987808257 23.5801282051282  9.61679135494597 23.5865384615385  C 9.98642283180937 23.5929487179487  10.2923247436963 23.5961538461538  10.5344970906068 23.5961538461538  C 10.7766694375173 23.5961538461538  11.1144361318925 23.5865384615385  11.5477971737323 23.5673076923077  C 11.9811582155722 23.5480769230769  12.3539761706844 23.5224358974359  12.666251039069 23.4903846153846  C 12.9785259074536 23.4583333333333  13.3417844278193 23.4038461538462  13.7560266001662 23.3269230769231  C 14.1702687725132 23.25  14.5239678581324 23.1602564102564  14.8171238570241 23.0576923076923  C 15.1102798559158 22.9551282051282  15.4129952895539 22.8205128205128  15.7252701579385 22.6538461538462  C 16.0375450263231 22.4871794871795  16.2892768079801 22.2948717948718  16.4804655029094 22.0769230769231  C 16.6716541978387 21.8589743589744  16.827791632031 21.6025641025641  16.9488778054863 21.3076923076923  Z M 15.6009975062344 12.1538461538462  C 15.715710723192 11.8589743589744  15.7730673316708 11.5320512820513  15.7730673316708 11.1730769230769  C 15.7730673316708 10.75  15.6934053754503 10.375  15.5340814630091 10.0480769230769  C 15.374757550568 9.72115384615385  15.1803823773899 9.45192307692308  14.9509559434746 9.24038461538462  C 14.7215295095594 9.02884615384615  14.4156275976725 8.84935897435897  14.0332502078138 8.70192307692308  C 13.6508728179551 8.55448717948718  13.3003602105847 8.44871794871795  12.9817123857024 8.38461538461538  C 12.6630645608202 8.32051282051282  12.271127736215 8.26923076923077  11.805901911887 8.23076923076923  C 11.3406760875589 8.19230769230769  10.9710446106955 8.17628205128205  10.6970074812968 8.18269230769231  C 10.422970351898 8.18910256410256  10.0788307010252 8.19551282051282  9.6645885286783 8.20192307692308  C 9.2503463563314 8.20833333333333  8.99861457467443 8.21153846153846  8.9093931837074 8.21153846153846  L 8.9093931837074 14.1153846153846  C 8.97312274868385 14.1153846153846  9.19298974785259 14.1185897435897  9.56899418121363 14.125  C 9.94499861457468 14.1314102564103  10.2413410917152 14.1314102564103  10.4580216126351 14.125  C 10.674702133555 14.1185897435897  10.9933499584372 14.1057692307692  11.4139650872818 14.0865384615385  C 11.8345802161264 14.0673076923077  12.1850928234968 14.0320512820513  12.4655029093932 13.9807692307692  C 12.7459129952896 13.9294871794872  13.0741202549183 13.8589743589744  13.4501246882793 13.7692307692308  C 13.8261291216403 13.6794871794872  14.1352175117761 13.5608974358974  14.3773898586866 13.4134615384615  C 14.6195622055971 13.2660256410256  14.85536159601 13.0929487179487  15.0847880299252 12.8942307692308  C 15.3142144638404 12.6955128205128  15.4862842892768 12.4487179487179  15.6009975062344 12.1538461538462  Z " fill-rule="nonzero" fill="#d9001b" stroke="none" fill-opacity="0.827450980392157" transform="matrix(1 0 0 1 47 134 )" />
  </g>
</svg>