<?xml version="1.0" encoding="utf-8"?>
<svg version="1.1" xmlns:xlink="http://www.w3.org/1999/xlink" width="38px" height="28px" xmlns="http://www.w3.org/2000/svg">
  <g transform="matrix(1 0 0 1 -75 -546 )">
    <path d="M 25.1453125 15.0838068181818  C 25.2706597222222 14.9578598484848  25.3333333333333 14.8087121212121  25.3333333333333 14.6363636363636  C 25.3333333333333 14.4507575757576  25.2739583333333 14.2982954545455  25.1552083333333 14.1789772727273  L 18.1885416666667 7.17897727272727  C 18.0697916666667 7.05965909090909  17.9180555555556 7  17.7333333333333 7  C 17.5486111111111 7  17.396875 7.05965909090909  17.278125 7.17897727272727  L 10.33125 14.1590909090909  C 10.1993055555556 14.3181818181818  10.1333333333333 14.4772727272727  10.1333333333333 14.6363636363636  C 10.1333333333333 14.8219696969697  10.1927083333333 14.9744318181818  10.3114583333333 15.09375  C 10.4302083333333 15.2130681818182  10.5819444444444 15.2727272727273  10.7666666666667 15.2727272727273  L 15.2 15.2727272727273  L 15.2 22.2727272727273  C 15.2 22.4450757575758  15.2626736111111 22.5942234848485  15.3880208333333 22.7201704545455  C 15.5133680555556 22.8461174242424  15.6618055555556 22.9090909090909  15.8333333333333 22.9090909090909  L 19.6333333333333 22.9090909090909  C 19.8048611111111 22.9090909090909  19.9532986111111 22.8461174242424  20.0786458333333 22.7201704545455  C 20.2039930555556 22.5942234848485  20.2666666666667 22.4450757575758  20.2666666666667 22.2727272727273  L 20.2666666666667 15.2727272727273  L 24.7 15.2727272727273  C 24.8715277777778 15.2727272727273  25.0199652777778 15.2097537878788  25.1453125 15.0838068181818  Z M 36.3473958333333 15.6207386363636  C 37.4491319444444 17.0061553030303  38 18.5871212121212  38 20.3636363636364  C 38 22.4715909090909  37.2578125 24.2713068181818  35.7734375 25.7627840909091  C 34.2890625 27.2542613636364  32.4979166666667 28  30.4 28  L 8.86666666666667 28  C 6.42569444444444 28  4.33767361111111 27.1283143939394  2.60260416666667 25.3849431818182  C 0.867534722222222 23.641571969697  0 21.5435606060606  0 19.0909090909091  C 0 17.3674242424242  0.461805555555556 15.7765151515152  1.38541666666667 14.3181818181818  C 2.30902777777778 12.8598484848485  3.54930555555556 11.7660984848485  5.10625 11.0369318181818  C 5.07986111111111 10.6392045454545  5.06666666666667 10.3541666666667  5.06666666666667 10.1818181818182  C 5.06666666666667 7.37121212121212  6.05625 4.97159090909091  8.03541666666667 2.98295454545455  C 10.0145833333333 0.994318181818182  12.4027777777778 0  15.2 0  C 17.2583333333333 0  19.1418402777778 0.576704545454546  20.8505208333333 1.73011363636364  C 22.5592013888889 2.88352272727273  23.8027777777778 4.41477272727273  24.58125 6.32386363636364  C 25.5180555555556 5.50189393939394  26.6131944444444 5.09090909090909  27.8666666666667 5.09090909090909  C 29.2652777777778 5.09090909090909  30.459375 5.58806818181818  31.4489583333333 6.58238636363636  C 32.4385416666667 7.57670454545455  32.9333333333333 8.77651515151515  32.9333333333333 10.1818181818182  C 32.9333333333333 11.1893939393939  32.6628472222222 12.1041666666667  32.121875 12.9261363636364  C 33.8371527777778 13.3371212121212  35.2456597222222 14.235321969697  36.3473958333333 15.6207386363636  Z " fill-rule="nonzero" fill="#000000" stroke="none" transform="matrix(1 0 0 1 75 546 )" />
  </g>
</svg>